<?xml version="1.0" encoding="UTF-8"?>
<svg id="Layer_2" data-name="Layer 2" xmlns="http://www.w3.org/2000/svg" viewBox="0 0 224.2 68.97">
  <defs>
    <style>
      .cls-1 {
        fill: #fff;
      }

      .cls-1, .cls-2 {
        stroke: #302b4c;
        stroke-miterlimit: 10;
      }

      .cls-2 {
        fill: #c9a9d0;
      }
    </style>
  </defs>
  <g id="beverages_digest" data-name="beverages digest">
    <g id="bottle">
      <path class="cls-2" d="m30.87,35.37l-4.54,1.73c-2.59.91-4.72.99-8.11,1.39l-8.62-.23c-1.09.1-8.76,20.03-9.07,22.39-.14,1.09.3,2.16,1.17,2.84,2.67,2.07,9.64,6.59,17.4,4.41.8-.22,1.48-.76,1.88-1.48,1.86-3.31,12.07-31.24,9.88-31.04Z"/>
      <path class="cls-2" d="m37.35,1.23c-2.54.03-4.14-.27-5.14-.63-1-.35-2.15.19-2.54,1.18-.57,1.43-3.29,8.27-4.53,11.41-.45,1.13,5.02-.29,9.78,2.49l4.41-11.69c.49-1.35-.53-2.77-1.97-2.76Z"/>
    </g>
    <g id="text">
      <path class="cls-1" d="m36.58,19.36c0-4.14-4.93-5.51-10.8-5.51-2.41,0-6.52.22-8.53.54-.94.14-1.3.36-1.73,1.22l-10.22,20.16c-.54,1.12-.32,1.84.86,2.05,2.2.43,6.95.68,10.11.68,8.35,0,17.78-1.94,17.78-9.04,0-1.94-1.22-3.38-3.56-4.21v-.11c3.2-.79,6.08-2.48,6.08-5.8Zm-17.57,14.33c-1.44,0-3.17-.11-4.36-.29l2.63-5.26h4.79c2.63,0,4.03.61,4.03,2.05,0,2.66-4.21,3.49-7.09,3.49Zm4.32-10.37h-3.64l2.38-4.72c.61-.11,1.73-.14,2.63-.14,2.2,0,3.92.61,3.92,2.09,0,2.16-2.77,2.77-5.29,2.77Z"/>
      <path class="cls-1" d="m55.81,35.74l-.32-2.52c-.11-.79-.54-.97-1.3-.76-1.76.5-4.18.9-6.66.9-2.66,0-3.96-.79-3.96-1.91,0-.18,0-.36.04-.58,4.54-.36,9.57-1.19,12.42-1.98,2.77-.76,4.14-1.94,4.14-4.9,0-3.89-3.42-6.16-7.67-6.16-9.18,0-16.49,8.35-16.49,14.36,0,4.43,3.53,6.33,8.89,6.33,4.28,0,7.81-.65,9.68-1.26.97-.32,1.33-.65,1.22-1.55Zm-4.18-13.57c1.3,0,2.09.65,2.09,1.51,0,1.12-1.01,1.55-2.48,1.91-2.02.5-4.03.76-6.08.9,1.22-2.2,3.96-4.32,6.48-4.32Z"/>
      <path class="cls-1" d="m62.29,22.6c.94,0,1.22.47,1.08,1.91l-1.08,10.55c-.25,2.48,1.44,3.46,3.74,3.46,9,0,18.03-7.88,20.55-18.39.25-1.01-.18-1.62-1.01-1.62h-4.46c-1.08,0-1.55.29-1.87,1.4-.58,2.09-1.3,4.82-2.52,6.98-1.44,2.59-4.21,5.54-6.12,5.54-.79,0-1.12-.54-.97-1.66l1.04-7.31c.54-3.89-.4-5.29-3.6-5.29-.76,0-2.09.07-2.92.22-.97.18-1.44.4-1.87,1.33l-.79,1.69c-.36.79-.07,1.19.79,1.19Z"/>
      <path class="cls-1" d="m104.37,35.74l-.32-2.52c-.11-.79-.54-.97-1.3-.76-1.76.5-4.18.9-6.66.9-2.66,0-3.96-.79-3.96-1.91,0-.18,0-.36.04-.58,4.54-.36,9.57-1.19,12.42-1.98,2.77-.76,4.14-1.94,4.14-4.9,0-3.89-3.42-6.16-7.67-6.16-9.18,0-16.49,8.35-16.49,14.36,0,4.43,3.53,6.33,8.89,6.33,4.28,0,7.81-.65,9.68-1.26.97-.32,1.33-.65,1.22-1.55Zm-4.18-13.57c1.3,0,2.09.65,2.09,1.51,0,1.12-1.01,1.55-2.48,1.91-2.02.5-4.03.76-6.08.9,1.22-2.2,3.96-4.32,6.48-4.32Z"/>
      <path class="cls-1" d="m107.18,38.08h4.9c.94,0,1.3-.14,1.91-1.33l1.55-3.06c2.45-4.86,5.8-9.43,11.34-9.43.5,0,1.26.04,1.91.07.86.07,1.26-.32,1.44-1.3l.65-3.06c.32-1.44-.11-1.94-1.94-1.94-2.95,0-6.01,1.73-8.31,3.67h-.07l.79-1.58c.54-1.12.22-1.62-.72-1.62h-4.1c-.94,0-1.4.25-1.87,1.37-.47,1.08-1.66,3.89-2.48,5.51l-5.65,11.12c-.54,1.08-.25,1.58.68,1.58Z"/>
      <path class="cls-1" d="m133.21,38.55c2.84,0,6.37-1.3,8.78-3.56h.07c-.14,2.3,1.8,3.49,4.21,3.49.86,0,2.34-.07,3.17-.22.97-.18,1.44-.4,1.87-1.33l.79-1.69c.36-.79.07-1.19-.79-1.19-.94,0-1.33-.68-.72-1.91l5.65-11.05c.43-.83.22-1.51-.61-1.76-2.56-.79-5.76-1.3-8.31-1.3-6.01,0-11.19,1.48-15.37,5.69-2.66,2.74-4.61,6.44-4.61,9.68,0,2.84,1.69,5.15,5.87,5.15Zm5.15-12.85c1.51-1.51,3.67-2.74,6.48-2.74.94,0,1.91.14,2.7.29l-1.22,2.38c-1.66,3.2-5.36,7.06-8.67,7.06-1.22,0-2.02-.58-2.02-1.76,0-1.76,1.33-3.82,2.74-5.22Z"/>
      <path class="cls-1" d="m201.39,35.74l-.32-2.52c-.11-.79-.54-.97-1.3-.76-1.76.5-4.17.9-6.66.9-2.66,0-3.96-.79-3.96-1.91,0-.18,0-.36.04-.58,4.54-.36,9.57-1.19,12.42-1.98,2.77-.76,4.14-1.94,4.14-4.9,0-3.89-3.42-6.16-7.67-6.16-9.18,0-16.49,8.35-16.49,14.36,0,4.43,3.53,6.33,8.89,6.33,4.28,0,7.81-.65,9.68-1.26.97-.32,1.33-.65,1.22-1.55Zm-4.18-13.57c1.3,0,2.09.65,2.09,1.51,0,1.12-1.01,1.55-2.48,1.91-2.02.5-4.03.76-6.08.9,1.22-2.2,3.96-4.32,6.48-4.32Z"/>
      <path class="cls-1" d="m222.41,18.14c-1.12-.07-2.23-.11-3.28-.11-6.55,0-11.41,2.45-11.41,6.95,0,4.1,4.82,5.04,4.82,7.09,0,1.15-.97,1.51-3.64,1.51-1.4,0-2.84-.14-3.85-.25s-1.33.4-1.44,1.3l-.25,2.12c-.14,1.19.22,1.55,1.26,1.62,1.12.07,2.66.14,3.71.14,6.98,0,12.06-2.16,12.06-6.95,0-4.25-4.75-5.33-4.75-7.31,0-.76.79-1.33,2.84-1.33,1.04,0,2.48.14,3.49.25,1.01.14,1.33-.4,1.44-1.3l.25-2.12c.14-1.19-.22-1.55-1.26-1.62Z"/>
      <path class="cls-1" d="m67.44,39.27c-2.92,0-5.69.22-8.17.54-1.04.14-1.51.43-1.98,1.33l-10.15,20.05c-.54,1.19-.36,1.8.86,2.05,2.63.61,7.24.68,10.83.68,14.18,0,21.53-8.64,21.53-15.87,0-6.66-6.05-8.78-12.92-8.78Zm1.33,16.09c-1.98,1.94-5.62,3.38-9.21,3.38-.68,0-1.76-.07-2.92-.22l7.13-14.18c.9-.11,1.91-.14,2.41-.14,3.06,0,5.72,1.26,5.72,4.68,0,2.34-1.15,4.54-3.13,6.48Z"/>
      <path class="cls-1" d="m100.6,39.7h-5.33c-1.04,0-1.44.43-1.91,1.33l-10.55,20.88c-.47.9-.18,1.58.68,1.58h5.36c1.04,0,1.44-.43,1.91-1.33l10.55-20.88c.43-.86.18-1.58-.72-1.58Z"/>
      <path class="cls-1" d="m132.2,39.52c-1.98-.18-3.96-.25-5.94-.25-10.29,0-15.69,3.2-18.57,6.08-2.3,2.3-4.46,5.87-4.46,9.93,0,6.05,5.15,8.64,12.31,8.64,3.13,0,6.88-.25,8.89-.65.76-.14,1.44-.43,1.87-1.3l4.07-8.14c.43-.86.18-1.55-.72-1.55h-5.33c-1.04,0-1.44.43-1.91,1.33l-2.59,5.29c-.79.18-1.87.29-2.92.29-3.06,0-5.22-1.37-5.22-4.54,0-2.05,1.08-4.46,2.77-6.16,3.17-3.17,7.88-4,12.49-4,1.58,0,3.28.07,4.79.22,1.12.11,1.33-.5,1.44-1.3l.29-2.34c.14-1.04-.25-1.51-1.26-1.58Z"/>
      <path class="cls-1" d="m158.67,48.67h-9.03l2.02-4h3.84c1.11.07,2.65.14,3.68.14,8.03,0,13.46-2.77,16.27-8.31l7.81-15.41c.43-.83.22-1.51-.61-1.76-2.56-.79-5.76-1.3-8.6-1.3-5.36,0-10.26,1.51-14.43,5.62-2.34,2.3-4.54,6.05-4.54,9.39,0,2.66,1.73,4.79,5.62,4.79,2.56,0,5.51-.94,7.85-2.59h.11l-.5,1.04c-.81,1.64-2.47,2.96-5.84,3.42h-14.96c-1.04,0-1.44.43-1.91,1.33l-10.58,20.88c-.47.94-.18,1.58.68,1.58h18.79c.94,0,1.37-.36,1.91-1.33l1.08-2.02c.5-.97.11-1.62-.72-1.62h-11.92l2.48-4.9h9.29c.94,0,1.4-.36,1.91-1.33l1.04-2.02c.5-.97.11-1.62-.72-1.62Zm6.44-16.6c-1.15,0-1.87-.47-1.87-1.69,0-1.55,1.33-3.6,2.59-4.86,1.37-1.37,3.38-2.56,5.98-2.56.94,0,1.94.14,2.74.29l-1.22,2.34c-1.51,2.88-5.08,6.48-8.21,6.48Z"/>
      <path class="cls-1" d="m187.21,39.49c-1.3-.14-3.06-.22-4.68-.22-7.34,0-12.89,2.84-12.89,8.1,0,4.93,6.01,6.41,6.01,9.07,0,1.69-1.76,2.27-5.51,2.27-2.12,0-3.6-.11-4.68-.22-.86-.07-1.12.54-1.19,1.3l-.25,2.3c-.11,1.08.07,1.51,1.22,1.62,1.3.11,2.81.22,4.71.22,7.78,0,14.36-2.38,14.36-8.17,0-4.9-5.94-6.41-5.94-9.36,0-1.58,2.12-1.98,4.39-1.98,1.4,0,3.2.14,4.21.22.86.07,1.12-.54,1.19-1.3l.25-2.23c.14-1.08-.07-1.51-1.22-1.62Z"/>
      <path class="cls-1" d="m218.96,39.7h-21.81c-1.08,0-1.55.25-2.09,1.33l-1.01,2.02c-.47.94-.29,1.62.65,1.62h7.45l-8.67,17.24c-.43.86-.22,1.58.68,1.58h5.36c.94,0,1.37-.32,1.87-1.33l8.82-17.49h6.3c1.08,0,1.55-.25,2.09-1.33l1.01-2.02c.47-.94.29-1.62-.65-1.62Z"/>
    </g>
  </g>
</svg>